<?xml version="1.0" encoding="UTF-8"?>
<svg id="Layer_1" data-name="Layer 1" xmlns="http://www.w3.org/2000/svg" viewBox="0 0 810.2 181.26">
  <path d="m230.26,78.47c-3.33,7.71-9.08,18.45-19.06,18.45-5.75,0-5.45-7.41-2.57-18.3,2.27-8.77,4.84-16.94,7.41-24.2h6.96c4.69,0,7.26-7.26.3-7.26h-4.69c3.78-10.44,7.11-18,8.32-20.87,1.97-4.39-7.26-8.62-14.37-8.62-3.48,0-6.5,1.06-7.56,3.63-4.08,10.44-7.26,18.61-9.83,25.72h-7.41c-6.65,0-8.17,7.41-3.94,7.41h8.78c-3.18,9.38-5.6,16.64-7.87,24.2-.05.15-.08.3-.13.45-6.32,14.08-14.57,25.27-26.94,25.27-13.77,0-17.85-10.29-14.67-19.21,0,0,3.94,2.27,10.89,2.27,12.55,0,21.48-7.26,21.48-20.57,0-14.22-9.07-18.75-18.61-18.75-20.42,0-31.76,25.11-33.73,30.1-4.92,12.93-5.15,22.47-2.78,29.44-.14.01-.23-.15-.39-.1-3.03,1.21-5.6,1.66-7.87,1.66-5.6,0-9.07-3.18-12.25-6.81,8.77-14.07,17.09-30.86,22.69-48.85,7.71-24.81.15-40.39-22.99-41.14-18.3-.61-34.64,7.56-45.23,19.66-12.7,14.82-9.68,27.38-.61,31.92,2.12,1.21,4.99,1.51,7.72,1.51,6.35,0,12.86-2.27,12.71-3.78-.76-6.05,1.51-19.51,12.7-29.65,8.32-7.56,16.64-8.02,18.46-7.26,7.41,2.57-1.21,22.84-12.86,45.83-2.57,4.99-6.5,13.01-11.19,20.57-4.84-2.57-12.55-5.6-21.78-5.6s-18.91,2.88-29.34,11.65c-3.18,2.72-5.9,6.51-8.02,12.1-7.41,19.51,7.41,37.06,26.47,37.06s31.46-15.88,41.59-29.49c3.78,5.29,8.93,9.07,15.58,10.44,12.39,2.24,16.83-8.26,16.88-14.86,5.52,8.77,16.08,11.83,24.41,11.83,15.95,0,26.8-10.08,33.55-20.19.57,9.19,4.68,16,15.29,17.17,24.05,2.72,34.03-19.21,38.12-36.76,0,0,1.36-5.74-3.63-6.05Zm-67.16-18.3c7.11,0,5.3,19.36-9.38,19.36-2.42,0-5.14-.46-8.16-1.66,4.84-10.13,11.49-17.7,17.54-17.7Zm-107.24,53.39c-7.56.46-10.29-5.9-8.77-11.35.76-1.66,3.63-6.2,10.58-6.2,3.94,0,9.08,1.36,16.04,5.74-5.3,6.51-11.5,11.49-17.85,11.8Z"/>
  <path d="m333.86,107.51c-3.03,1.21-5.6,1.66-7.87,1.66-5.6,0-9.07-3.18-12.25-6.81,8.77-14.07,17.09-30.86,22.69-48.85,7.71-24.81.15-40.39-22.99-41.14-18.3-.61-34.64,7.56-45.23,19.66-12.7,14.82-9.68,27.38-.61,31.92,2.12,1.21,4.99,1.51,7.72,1.51,6.35,0,12.86-2.27,12.71-3.78-.76-6.05,1.51-19.51,12.7-29.65,8.32-7.56,16.64-8.02,18.46-7.26,7.41,2.57-1.21,22.84-12.86,45.83-2.57,4.99-6.5,13.01-11.19,20.57-4.84-2.57-12.55-5.6-21.78-5.6s-18.91,2.88-29.34,11.65c-3.18,2.72-5.9,6.51-8.02,12.1-7.41,19.51,7.41,37.06,26.47,37.06s31.46-15.88,41.59-29.49c3.78,5.29,8.92,9.07,15.58,10.44,18.45,3.33,19.51-21.78,14.22-19.81Zm-63.98,6.05c-7.56.46-10.29-5.9-8.77-11.35.76-1.66,3.63-6.2,10.59-6.2,3.94,0,9.08,1.36,16.04,5.74-5.3,6.51-11.5,11.49-17.85,11.8Z"/>
  <path d="m373.64,47.91c-19.52,0-32.22,16.34-36.76,31.76-10.89,37.66,13.46,44.02,26.47,44.02,17.09,0,29.49-14.37,33.88-32.67,4.08-16.64,2.72-43.11-23.59-43.11Zm-9.68,55.82c-16.49,0-4.69-43.11,11.64-43.41,14.98-.45,7.11,43.41-11.64,43.41Z"/>
  <path d="m775.66,52c-3.48,0-6.65,1.06-7.71,3.63-3.18,7.41-6.05,15.12-8.62,22.23-3.48,7.11-9.07,14.37-18,14.37-5.6,0-4.99-7.26-2.27-15.73,2.57-7.41,5.75-15.13,7.87-19.81,1.97-4.39-6.96-8.62-14.22-8.62-3.48,0-6.5,1.06-7.71,3.63-.98,2.09-7.09,14.62-11.1,28.18-6.27,13.69-14.42,24.46-26.56,24.46-13.77,0-17.85-10.29-14.68-19.21,0,0,3.94,2.27,10.89,2.27,12.55,0,21.48-7.26,21.48-20.57,0-14.22-9.07-18.75-18.61-18.75-20.42,0-31.76,25.11-33.73,30.1-.17.45-.27.84-.43,1.28-3.35,7.76-10.25,19.45-19.84,19.45-8.92,0-3.63-14.37-2.12-18.91,4.69-13.61,2.42-26.92-15.28-27.98-8.32-.45-15.73,3.33-21.93,8.78.45-1.21,1.06-2.57,1.66-3.78,1.96-4.39-6.66-8.62-13.77-8.62-3.48,0-6.66,1.06-8.02,3.63-4.98,9.88-8.95,19.63-11.74,28.66-3.64,7.71-10.31,18.23-19.41,18.23-10.74,0,2.12-30.1,7.41-42.05,1.82-4.38-6.8-8.62-13.91-8.62-2.12,0-3.93.46-5.45,1.21-7.86,1.06-12.25-1.06-14.52-2.88.61-1.66.91-3.48.91-5.6,0-5.74-2.72-10.44-8.47-10.44s-10.59,4.69-10.59,10.44c0,4.54,2.87,8.47,6.96,9.83-.8,5.44-6.25,16.83-11.63,27.83,0,0,0,0-.01,0-.05.11-.11.23-.15.34-.78,1.6-1.56,3.19-2.32,4.75-3.5,6.27-8.89,12.15-16.73,12.15-5.75,0-4.99-7.26-2.57-15.73,2.57-7.41,5.9-15.13,8.02-19.82,1.97-4.38-6.96-8.62-14.22-8.62-3.48,0-6.51,1.06-7.71,3.63-.76,1.81-6.05,11.95-9.53,23.59-3.48,7.71-10.44,19.97-20.27,19.97-11.04,0,1.96-30.1,7.41-42.05,1.97-4.38-6.96-8.62-14.22-8.62-3.48,0-6.5,1.06-7.71,3.63-5.9,13.61-31.76,69.12-1.36,72.45,15.42,1.66,25.56-7.56,32.06-19.06,1.36,11.65,9.08,16.49,19.97,16.49,11.89,0,19.96-7.51,25.36-16.92.05-.08.1-.16.15-.24.27-.47.57-.91.82-1.39,4.82-8.16,10.9-21.62,14.65-31.21,1.51-3.18,5.75-13.31,8.02-18.75,4.39,2.27,9.23,2.72,13.46,2.57-8.02,18.3-27.53,65.34.61,68.67,14.25,1.52,24.06-6.69,30.57-17.22.45,10.55,4.86,17.22,14.35,17.22,12.86,0,8.47-6.5,8.47-6.5-.15,0-2.72-10.74,4.99-35.24,3.18-7.11,8.92-16.49,18.75-16.33,5.3.15,5.45,5.9,3.33,12.4-7.11,22.84-10.29,43.26,9.98,45.53,15.63,1.76,25.9-8.06,32.32-19.94,2.99,15.09,17.06,19.94,27.58,19.94,16.28,0,27.24-10.49,33.96-20.81.85,8.18,5.01,14.01,15.19,14.01s18.75-6.66,25.87-15.88c-3.03,9.68-4.69,16.03-4.69,16.48-18.75,3.94-37.97,11.8-39.33,32.67-.6,10.74,8.47,18.15,19.21,18.15,17.24,0,32.52-12.25,42.81-51.73,0,0,8.32-31.76,20.27-56.57,1.97-4.39-6.96-8.62-14.22-8.62Zm-82.89,8.17c7.11,0,5.3,19.36-9.38,19.36-2.42,0-5.14-.46-8.16-1.66,4.84-10.13,11.49-17.7,17.54-17.7Zm45.83,81.83c-1.66.91-3.03,1.21-4.23,1.21-3.48,0-4.69-3.33-4.69-4.99,0-7.72,9.68-10.44,15.28-12.25-1.51,8.02-2.87,14.22-6.35,16.03Z"/>
</svg>