<?xml version="1.0" encoding="UTF-8"?>
<svg id="Layer_1" data-name="Layer 1" xmlns="http://www.w3.org/2000/svg" viewBox="0 0 73.01 88.94">
  <defs>
    <style>
      .cls-1 {
        fill: #fbe6d4;
      }
    </style>
  </defs>
  <path class="cls-1" d="m63.32,55.63c-1.04-2.49-2.28-4.67-4.05-6.74-.62-1.04-1.45-1.87-2.39-2.8-.62-.73-1.56-1.04-2.49-.73-.21.1-.42.21-.62.31-.1,0-.21.1-.31.1-4.46,1.76-9.13,2.39-13.9,2.59-6.84.31-13.59-.21-20.02-2.59-.31-.1-.62-.21-.93-.31-1.04-.31-1.97,0-2.7.73-.83.83-1.45,1.66-2.18,2.49-3.73,4.77-5.81,10.27-6.22,16.49-.21,3.53,1.14,6.33,3.84,8.19,1.76,1.24,3.73,2.28,5.7,3.11,6.22,2.49,12.76,3.22,19.19,3.32,6.33-.1,12.24-.73,17.94-2.59,3.11-1.04,6.02-2.39,8.4-4.67,1.97-1.76,3.01-3.94,2.9-6.64-.1-3.53-.83-6.95-2.18-10.27Z"/>
  <path class="cls-1" d="m36.51,9.14c10.28.01,18.44,8.28,18.42,18.69-.01,9.94-8.39,18.22-18.42,18.2-10.26-.02-18.5-8.3-18.47-18.57.03-10.09,8.33-18.33,18.46-18.32Z"/>
</svg>