<?xml version="1.0" encoding="UTF-8"?>
<svg id="Layer_1" data-name="Layer 1" xmlns="http://www.w3.org/2000/svg" viewBox="0 0 144.96 78.64">
  <path d="m134.06,70.82c1.73-11.71-7.66-18.29-15.32-17.8-7.28.47-15.23,7.03-13.57,17.71h-60.37c.79-5.44-.52-10.22-4.68-13.97-2.96-2.67-6.48-3.9-10.46-3.69-4.47.23-8.11,2.14-10.86,5.64-2.76,3.51-3.56,7.56-2.78,12.29-3.38-.17-6.64,0-9.75-.59C2.43,69.68.02,66.01.01,61.76c-.02-7.91,0-15.83,0-23.74,0-9.48,0-18.95,0-28.43C.01,3.55,3.57,0,9.64,0c42.23,0,84.46,0,126.69,0,5.57,0,8.62,3.04,8.62,8.58,0,2.9,0,5.8,0,8.82h-24.9v17.52h24.82v9.67h-8.29c0,1.75-.06,3.3.02,4.84.07,1.28.92,1.77,2.13,1.76,2.02-.01,4.04,0,6.23,0,0,3.24,0,6.35,0,9.45,0,1.67.03,3.33,0,5-.07,2.76-1.98,4.94-4.69,5.15-2.01.15-4.04.03-6.2.03ZM33.41,17.47c-4.33,0-8.54-.1-12.74.04-2.21.07-4,2.1-4.09,4.42-.1,2.86-.11,5.72,0,8.58.09,2.23,1.82,4.26,3.99,4.35,4.24.17,8.5.05,12.83.05v-17.43Zm20.36,17.44v-17.36h-15.18v17.36h15.18Zm20.35-.03v-17.31h-15.15v17.31h15.15Zm5.2-.01h15.17v-17.31h-15.17v17.31Zm35.58-17.33h-15.19v17.3h15.19v-17.3Z"/>
  <path d="m108.69,67.63c0-6.04,4.9-10.87,10.97-10.83,6.04.04,10.88,4.91,10.88,10.97,0,5.93-4.91,10.85-10.84,10.87-6.11.01-11.02-4.9-11.01-11.01Zm10.95,3.93c2.17-.02,3.82-1.69,3.82-3.87,0-2.14-1.71-3.87-3.83-3.9-2.15-.03-3.99,1.84-3.93,3.99.06,2.15,1.78,3.81,3.94,3.78Z"/>
  <path d="m41.26,67.66c-.01,6.14-4.92,11.01-11.03,10.97-5.92-.04-10.85-5.01-10.8-10.9.05-6.15,4.93-10.97,11.07-10.94,5.99.03,10.77,4.86,10.76,10.87Zm-10.91,3.9c2.14.01,3.89-1.68,3.93-3.81.04-2.08-1.71-3.91-3.81-3.97-2.18-.06-3.99,1.72-3.98,3.92.01,2.17,1.69,3.84,3.86,3.85Z"/>
</svg>