<?xml version="1.0" encoding="UTF-8"?>
<svg id="Layer_1" data-name="Layer 1" xmlns="http://www.w3.org/2000/svg" viewBox="0 0 118.95 116.08">
  <path d="m97.21,25.82c2.94.73,5.72,1.41,8.49,2.11.98.25,2.35.26,2.83.91.52.7.25,2.02.25,3.06,0,12.82,0,25.65.02,38.47,0,.78-.15,1.2-.99,1.54-3.69,1.48-5.38,4.53-6.06,8.24-.65,3.54.09,7,1.04,10.36.73,2.59,1.92,5.04,2.88,7.57.17.46.27.98.27,1.47.02,4.44.01,8.89.01,13.43h2.91v-3.65c0-3.58.02-7.16-.02-10.74,0-.59-.23-1.22-.5-1.75-2.45-4.76-3.89-9.77-3.79-15.16.04-2.02.71-3.86,2.02-5.43,2.1-2.52,5.18-2.55,7.32-.07,1.74,2.02,2.28,4.46,2.11,7.05-.32,4.8-1.56,9.36-3.86,13.61-.16.3-.28.66-.28.99-.02,4.92,0,9.83,0,14.75,0,.11.04.22.1.5,1.42,0,2.86,0,4.3,0,.43,0,.87-.03,1.3.02.84.1,1.41.55,1.42,1.44,0,.95-.59,1.41-1.48,1.5-.31.03-.63.01-.94.01-38.04,0-76.07,0-114.11,0-.2,0-.39,0-.59,0-1.2-.04-1.89-.59-1.83-1.52.07-1.09.8-1.45,1.78-1.45,1.8,0,3.6,0,5.54,0,0-.64,0-1.18,0-1.72,0-4.25.02-8.5-.02-12.75,0-.59-.22-1.22-.49-1.75-2.55-4.98-4.11-10.2-3.75-15.85.13-2.1.98-3.96,2.57-5.41,1.87-1.71,4.31-1.71,6.17.02,1.67,1.55,2.49,3.55,2.59,5.78.23,5.35-1.27,10.32-3.61,15.08-.2.41-.48.86-.48,1.29-.03,5.03-.02,10.07-.02,15.2h2.93c0-.44,0-.86,0-1.28,0-4.21-.02-8.42.02-12.63,0-.56.17-1.16.42-1.66,2.34-4.68,3.57-9.65,3.76-14.85.11-3.12-.8-6.02-2.97-8.35-.84-.9-1.9-1.7-3.01-2.18-1.01-.43-1.3-.88-1.29-1.94.04-13.37.04-26.75,0-40.12,0-.94.2-1.36,1.19-1.58,3.14-.7,6.25-1.54,9.38-2.31.29-.07.6-.11,1.01-.19v87.11h2.98V25.49h69.51v87.53h2.98V25.82Zm-21.7,87.21v-24.14c1.25,0,2.38.01,3.51,0,1.28-.02,1.98-.59,1.94-1.55-.04-.92-.69-1.42-1.93-1.42-13.01,0-26.03,0-39.04,0-1.19,0-1.89.57-1.9,1.47,0,.91.68,1.47,1.88,1.49,1.13.02,2.26,0,3.54,0v24.14h2.98v-24.06h11.57v24.04h2.91v-24.01h11.57v24.04h2.98ZM29.01,36.61c0,1.69-.01,3.38,0,5.07.01,1.32.46,1.83,1.74,1.84,2.83.03,5.66.03,8.49,0,1.22-.01,1.77-.53,1.78-1.71.03-3.46.03-6.92,0-10.38,0-1.19-.57-1.71-1.77-1.72-2.83-.02-5.66-.02-8.49,0-1.26,0-1.74.51-1.75,1.82-.02,1.69,0,3.38,0,5.07Zm32.61.02c0,1.65-.01,3.3,0,4.95.01,1.43.49,1.94,1.9,1.95,2.75.02,5.5.02,8.25,0,1.37-.01,1.86-.51,1.86-1.85.01-3.38.01-6.76,0-10.14,0-1.32-.52-1.81-1.89-1.82-2.75-.01-5.5-.01-8.25,0-1.34,0-1.86.51-1.87,1.84-.02,1.69,0,3.38,0,5.07Zm-16.3,0c0,1.65,0,3.3,0,4.95,0,1.44.46,1.93,1.89,1.94,2.75.02,5.5.02,8.25,0,1.35-.01,1.86-.53,1.87-1.86.02-3.38.02-6.76,0-10.14,0-1.28-.53-1.8-1.79-1.81-2.83-.02-5.66-.02-8.49,0-1.2,0-1.72.53-1.73,1.73-.02,1.73,0,3.46,0,5.19Zm44.63-.02c0-1.69.01-3.38,0-5.07-.01-1.34-.5-1.82-1.87-1.83-2.75-.01-5.5-.01-8.25,0-1.35,0-1.88.51-1.89,1.83-.02,3.38-.02,6.76,0,10.14,0,1.29.51,1.82,1.77,1.83,2.83.03,5.66.03,8.49,0,1.28-.01,1.73-.52,1.74-1.84.01-1.69,0-3.38,0-5.07Zm-44.63,18c0,1.77-.02,3.54,0,5.31.01,1.17.49,1.71,1.62,1.72,2.91.03,5.82.02,8.73,0,1.11,0,1.66-.6,1.67-1.69.01-3.46.02-6.92,0-10.38,0-1.2-.54-1.71-1.75-1.71-2.83-.02-5.66-.02-8.49,0-1.28,0-1.76.5-1.77,1.8-.02,1.65,0,3.3,0,4.95Zm44.63,18.28c0-1.69.01-3.38,0-5.07-.01-1.37-.46-1.83-1.85-1.84-2.79-.02-5.58-.02-8.37,0-1.23,0-1.77.5-1.78,1.69-.03,3.46-.03,6.92,0,10.38,0,1.2.55,1.71,1.76,1.72,2.83.02,5.66.02,8.49,0,1.28,0,1.75-.5,1.76-1.81.02-1.69,0-3.38,0-5.07Zm-16.3.01c0-1.69.01-3.38,0-5.07-.01-1.32-.47-1.83-1.73-1.84-2.87-.02-5.74,0-8.61,0-1.11,0-1.67.59-1.67,1.68,0,3.46-.02,6.92,0,10.38,0,1.2.54,1.72,1.74,1.73,2.83.02,5.66.02,8.49,0,1.28,0,1.77-.51,1.78-1.8.02-1.69,0-3.38,0-5.07Zm-16.3-.12c0-1.65.01-3.3,0-4.95-.01-1.31-.49-1.83-1.75-1.84-2.87-.02-5.74-.03-8.61,0-1.15.01-1.65.53-1.66,1.67-.02,3.46-.02,6.92,0,10.38,0,1.21.51,1.72,1.73,1.73,2.83.02,5.66.02,8.49,0,1.27,0,1.78-.52,1.79-1.8.02-1.73,0-3.46,0-5.19Zm-28.33-17.94c0,1.69,0,3.38,0,5.07,0,1.1.51,1.72,1.62,1.72,2.91.02,5.82,0,8.72,0,1.05,0,1.65-.55,1.66-1.58.03-3.54.03-7.08,0-10.61,0-1.01-.56-1.6-1.63-1.6-2.91,0-5.82-.01-8.73,0-1.14,0-1.63.52-1.64,1.68-.02,1.77,0,3.54,0,5.31Zm32.61-.12c0,1.73,0,3.46,0,5.19,0,1.08.52,1.72,1.64,1.72,2.91.01,5.82.03,8.72,0,1.14-.01,1.65-.54,1.65-1.69.02-3.46.02-6.92,0-10.38,0-1.21-.52-1.71-1.74-1.71-2.83-.02-5.66-.02-8.49,0-1.27,0-1.77.51-1.78,1.8-.02,1.69,0,3.38,0,5.07Zm28.33.07c0-1.69,0-3.38,0-5.07-.01-1.39-.46-1.87-1.81-1.87-2.79-.01-5.58-.01-8.37,0-1.32,0-1.82.51-1.83,1.88-.02,3.34-.02,6.68,0,10.02,0,1.37.49,1.87,1.84,1.88,2.79.02,5.58.02,8.37,0,1.36-.01,1.79-.49,1.8-1.89.01-1.65,0-3.3,0-4.95Zm-60.94,18.01c0,1.69,0,3.38,0,5.07.01,1.4.45,1.88,1.8,1.89,2.79.02,5.58.02,8.37,0,1.29,0,1.83-.51,1.84-1.76.03-3.42.02-6.84,0-10.26,0-1.23-.52-1.75-1.71-1.76-2.87-.03-5.74-.03-8.61,0-1.22.01-1.68.51-1.69,1.75-.02,1.69,0,3.38,0,5.07Zm34.48,28.12s-.02,0-.03,0c0,.28,0,.55,0,.83.02.98.49,1.6,1.5,1.58.94-.02,1.39-.63,1.4-1.55,0-.67.16-1.41-.08-1.98-.21-.5-.88-1.11-1.36-1.11-.47,0-1.04.62-1.4,1.09-.19.25-.03.76-.03,1.15Zm-10.93-.03s.03,0,.04,0c0,.39-.04.79,0,1.17.11.82.63,1.26,1.43,1.26.81,0,1.34-.47,1.41-1.28.06-.78.18-1.63-.07-2.32-.17-.48-.92-1.01-1.42-1.03-.43-.02-.97.6-1.3,1.05-.19.26-.07.76-.1,1.15Z"/>
  <path d="m59.48,22.44c-11.29,0-22.58,0-33.87,0-2.13,0-2.72-.6-2.72-2.73,0-5.66,0-11.33,0-16.99C22.89.68,23.56,0,25.55,0c22.62,0,45.23,0,67.85,0,1.99,0,2.67.68,2.67,2.7,0,5.7,0,11.41,0,17.11,0,1.98-.65,2.62-2.6,2.62-11.33,0-22.66,0-33.98,0Zm-25.03-9.66c0,1.28-.01,2.42,0,3.56.02,1.13.55,1.78,1.43,1.8.88.02,1.47-.63,1.48-1.74.02-3.42.02-6.84,0-10.26,0-1.15-.55-1.75-1.47-1.74-.91,0-1.43.62-1.44,1.76-.02,1.17,0,2.34,0,3.52h-4.29c0-1.19.01-2.28,0-3.38-.02-1.24-.53-1.88-1.45-1.91-.97-.02-1.52.65-1.53,1.95,0,3.26,0,6.53,0,9.79,0,1.29.54,2.01,1.47,2.02.93.01,1.49-.72,1.51-1.99.01-1.12,0-2.24,0-3.36h4.29Zm16.58-1.58s-.06,0-.09,0c0-.83.05-1.65,0-2.48-.18-2.53-2.21-4.42-4.66-4.39-2.49.03-4.46,1.93-4.54,4.48-.06,1.69-.06,3.38.02,5.07.11,2.26,1.92,4.06,4.15,4.26,2.29.2,4.42-1.27,4.88-3.54.23-1.1.18-2.26.26-3.39Zm20.84-3.92c1.3,0,2.51.02,3.72,0,.95-.02,1.6-.46,1.61-1.48.01-.97-.62-1.44-1.5-1.47-1.77-.05-3.54-.05-5.31,0-.96.03-1.5.61-1.5,1.61,0,3.54,0,7.08,0,10.62,0,.99.53,1.56,1.52,1.57,1.77.03,3.54.03,5.31,0,.92-.01,1.49-.52,1.49-1.47,0-1.04-.68-1.44-1.63-1.45-1.24-.02-2.47,0-3.69,0v-2.5c.7,0,1.33.02,1.95,0,.92-.04,1.5-.51,1.51-1.46.01-.96-.58-1.42-1.49-1.48-.65-.04-1.3,0-2,0v-2.49Zm-10.93,0c.77,0,1.4,0,2.02,0,.97-.02,1.61-.52,1.62-1.49.01-.92-.61-1.45-1.52-1.46-2.35-.04-4.71-.04-7.07,0-.95.01-1.6.52-1.55,1.54.05,1,.72,1.41,1.68,1.42.61,0,1.22,0,1.91,0,0,.64,0,1.11,0,1.57,0,2.59,0,5.18.01,7.77,0,.93.5,1.5,1.44,1.51.94,0,1.42-.57,1.45-1.5.02-.39,0-.79,0-1.18,0-2.66,0-5.33,0-8.18Zm23.58,7.93c0-.58,0-1,0-1.43,0-2.63,0-5.26-.01-7.89,0-.93-.51-1.49-1.45-1.5-.88,0-1.43.5-1.43,1.38-.03,3.65-.02,7.31,0,10.96,0,.82.51,1.37,1.32,1.39,2.51.05,5.03.05,7.54,0,.8-.02,1.28-.63,1.28-1.43,0-.79-.46-1.33-1.29-1.42-.47-.05-.94-.04-1.41-.04-1.48,0-2.97,0-4.54,0Z"/>
  <path d="m37.99,40.51h-6v-7.77h6v7.77Z"/>
  <path d="m70.61,40.54h-5.92v-7.8h5.92v7.8Z"/>
  <path d="m54.3,32.73v7.79h-5.97v-7.79h5.97Z"/>
  <path d="m86.96,32.72v7.79h-5.97v-7.79h5.97Z"/>
  <path d="m54.31,50.85v7.8h-5.97v-7.8h5.97Z"/>
  <path d="m86.92,76.8h-5.9v-7.81h5.9v7.81Z"/>
  <path d="m70.62,76.81h-5.93v-7.83h5.93v7.83Z"/>
  <path d="m48.34,68.96h5.95v7.83h-5.95v-7.83Z"/>
  <path d="m31.98,58.65v-7.8h5.97v7.8h-5.97Z"/>
  <path d="m64.66,58.65v-7.81h5.96v7.81h-5.96Z"/>
  <path d="m80.96,58.64v-7.79h5.97v7.79h-5.97Z"/>
  <path d="m37.97,76.8h-5.95v-7.83h5.95v7.83Z"/>
  <path d="m47.95,11.27c0,.78.03,1.57,0,2.35-.05.91-.59,1.45-1.49,1.53-.96.08-1.69-.43-1.76-1.35-.12-1.68-.12-3.37-.01-5.05.06-.92.75-1.48,1.71-1.43.94.06,1.51.63,1.55,1.6.04.78,0,1.57,0,2.35Z"/>
</svg>