<?xml version="1.0" encoding="UTF-8"?>
<svg id="Layer_1" data-name="Layer 1" xmlns="http://www.w3.org/2000/svg" viewBox="0 0 154.27 78.59">
  <path d="m144.76,12.46c-1.78,1.28-3.52,2.62-5.34,3.84-4.17,2.78-8.46,5.31-13.42,6.51-.52.13-.87.95-1.3,1.45.62.34,1.35,1.1,1.83.96,2.34-.67,4.79-1.26,6.85-2.48,4.55-2.67,8.91-5.64,13.28-8.6.93-.63,1.65-.91,2.56-.23,1.45,1.07,2.95,2.09,4.31,3.27.96.84.95,1.82.18,2.99-7.92,12.05-18.88,19.68-33.01,22.53-9.91,2-19.89,3.63-29.84,5.42-.5.09-1.01.13-1.94.24.58-.7.93-1.15,1.3-1.58,3.7-4.31,7.41-8.63,11.12-12.94.15-.17.29-.35.45-.52.63-.71,1.28-1.53.36-2.35-.92-.82-1.65-.12-2.28.62-1.4,1.65-2.81,3.28-4.22,4.92-10.7,12.47-21.43,24.92-32.09,37.42-1.44,1.69-3.06,2.79-5.25,3.17-1.96.34-3.9.78-5.83,1.25-2.2.53-4.08.1-5.49-1.73-1.41-1.83-1.32-3.74-.25-5.74,4.64-8.72,9.25-17.46,13.88-26.2.16-.3.33-.6.49-.9.45-.83.65-1.79-.43-2.1-.49-.14-1.52.41-1.81.92-1.9,3.36-3.71,6.77-5.45,10.22-.59,1.16-1.25,1.78-2.63,1.99-5.73.86-11.43,1.94-17.15,2.82-9.3,1.43-18.33-3.48-21.82-12.16C7.83,35.6,4.14,25.58.37,15.6c-.93-2.45-.06-4.83,2.03-6.08,2.06-1.23,4.56-.87,6.33,1.08,5.33,5.84,10.65,11.69,15.9,17.59,4.22,4.75,9.26,6.13,15.37,4.41,25.69-7.22,51.39-14.38,77.1-21.54,6.6-1.84,13.29-1.44,19.97-.56,2.55.34,5.06.98,7.59,1.49.03.15.06.31.09.46Z"/>
  <path d="m92.41,15.32c-9.78,2.73-19.45,5.45-29.14,8.1-.52.14-1.37-.07-1.77-.44-3.11-2.92-6.18-5.88-9.19-8.9-2.54-2.56-1.95-6.31,1.24-8.02,3.45-1.86,6.95-3.62,10.43-5.41,1.52-.78,3.12-.9,4.58-.03,7.9,4.71,15.77,9.49,23.65,14.25.07.05.09.2.19.46Z"/>
</svg>